<svg width="61" height="61" viewBox="0 0 61 61" fill="none" xmlns="http://www.w3.org/2000/svg">
<path d="M31.2975 33.2913C31.1847 33.2669 31.0689 33.2625 30.9546 33.2796C29.8089 33.1462 28.9446 32.1769 28.9427 31.0239C28.9427 30.4713 28.4946 30.0233 27.9421 30.0233C27.3895 30.0233 26.9415 30.4713 26.9415 31.0239C26.9444 32.9493 28.2323 34.6358 30.0888 35.1454V36.146C30.0888 36.6985 30.5368 37.1465 31.0894 37.1465C31.642 37.1465 32.09 36.6985 32.09 36.146V35.206C34.2328 34.7575 35.6892 32.7617 35.464 30.5842C35.2383 28.4066 33.4037 26.7519 31.2145 26.7514C29.9598 26.7514 28.9427 25.7342 28.9427 24.4796C28.9427 23.225 29.9598 22.2078 31.2145 22.2078C32.4691 22.2078 33.4863 23.225 33.4863 24.4796C33.4863 25.0321 33.9343 25.4802 34.4869 25.4802C35.0394 25.4802 35.4874 25.0321 35.4874 24.4796C35.4845 22.4579 34.0682 20.7142 32.09 20.297V19.3863C32.09 18.8338 31.642 18.3857 31.0894 18.3857C30.5368 18.3857 30.0888 18.8338 30.0888 19.3863V20.3581C28.0242 20.9219 26.6953 22.9264 26.9796 25.0478C27.264 27.1691 29.0741 28.7526 31.2145 28.7521C32.4525 28.7521 33.4623 29.7434 33.4848 30.9809C33.5078 32.2184 32.5346 33.2463 31.2975 33.2913Z" fill="black"/>
<path d="M16.7031 27.8287C16.7031 35.8421 23.1991 42.338 31.2125 42.338C39.2259 42.338 45.7218 35.8421 45.7218 27.8287C45.7218 19.8153 39.2259 13.3193 31.2125 13.3193C23.203 13.3281 16.7124 19.8192 16.7031 27.8287ZM31.2125 15.3205C38.1207 15.3205 43.7206 20.9204 43.7206 27.8287C43.7206 34.7369 38.1207 40.3369 31.2125 40.3369C24.3042 40.3369 18.7043 34.7369 18.7043 27.8287C18.7121 20.9238 24.3076 15.3283 31.2125 15.3205Z" fill="#E8AA31"/>
<path d="M50.6529 44.8049L42.8149 48.5082C41.7327 46.4954 39.6568 45.2143 37.3723 45.1498L30.1367 44.951C28.991 44.9183 27.8668 44.6281 26.8482 44.1019L26.1119 43.7203C22.3422 41.7553 17.8489 41.7602 14.083 43.733L14.1289 42.0651C14.1441 41.5125 13.7088 41.0523 13.1562 41.0371L5.22195 40.8187C4.66939 40.8036 4.20965 41.2389 4.19451 41.7915L3.71523 59.2029C3.70008 59.7554 4.13539 60.2157 4.68796 60.2308L12.6222 60.4492H12.6496C13.1919 60.4492 13.6355 60.0178 13.6501 59.476L13.6731 58.643L15.7344 57.5393C16.5434 57.104 17.4893 57.0004 18.3731 57.2506L30.6819 60.7052C30.7034 60.7115 30.7249 60.7164 30.7469 60.7213C31.6366 60.9075 32.5434 61.0008 33.4521 61.0003C35.377 61.0013 37.2795 60.5865 39.029 59.7833C39.072 59.7637 39.1135 59.7408 39.1531 59.7149L56.9998 48.1711C57.4444 47.8834 57.5881 47.2995 57.3277 46.8383C56.0027 44.4874 53.064 43.5918 50.6529 44.8049ZM5.74325 58.258L6.16732 42.8468L12.1009 43.0099L11.6768 58.4216L5.74325 58.258ZM38.1276 57.9961C35.954 58.9771 33.5263 59.2478 31.19 58.7705L18.9144 55.3247C17.5328 54.9343 16.0539 55.096 14.79 55.7756L13.7366 56.3399L14.0185 46.0933C17.3564 43.8732 21.6372 43.6451 25.192 45.4972L25.9282 45.8788C27.2151 46.5432 28.6344 46.9097 30.082 46.9517L37.3181 47.1505C39.3505 47.2091 41.0766 48.6563 41.4889 50.6476L30.7108 50.3501C30.1582 50.335 29.6985 50.7708 29.6828 51.3228C29.6677 51.8754 30.1035 52.3356 30.6556 52.3508L42.5501 52.6781H42.5779C43.1198 52.6776 43.5629 52.2462 43.5775 51.7049C43.5898 51.2701 43.5575 50.8348 43.4808 50.4068L51.5201 46.6082C51.5279 46.6048 51.5357 46.6009 51.5436 46.597C52.6839 46.02 54.0626 46.213 55.0006 47.0811L38.1276 57.9961Z" fill="#E8AA31"/>
<path d="M32.2121 10.506V1.00058C32.2121 0.448012 31.7641 0 31.2115 0C30.6589 0 30.2109 0.448012 30.2109 1.00058V10.506C30.2109 11.0586 30.6589 11.5066 31.2115 11.5066C31.7641 11.5066 32.2121 11.0586 32.2121 10.506Z" fill="black"/>
<path d="M39.7199 10.5061V6.00351C39.7199 5.45094 39.2719 5.00293 38.7193 5.00293C38.1668 5.00293 37.7188 5.45094 37.7188 6.00351V10.5061C37.7188 11.0587 38.1668 11.5067 38.7193 11.5067C39.2719 11.5067 39.7199 11.0587 39.7199 10.5061Z" fill="black"/>
<path d="M24.7082 10.5061V6.00351C24.7082 5.45094 24.2602 5.00293 23.7076 5.00293C23.155 5.00293 22.707 5.45094 22.707 6.00351V10.5061C22.707 11.0587 23.155 11.5067 23.7076 11.5067C24.2602 11.5067 24.7082 11.0587 24.7082 10.5061Z" fill="black"/>
</svg>
