<svg width="52" height="52" viewBox="0 0 52 52" fill="none" xmlns="http://www.w3.org/2000/svg">
<path d="M46.5164 2.52637H12.8914C9.97327 2.52637 7.59909 4.87834 7.59909 7.75992L7.3824 37.3685H0.820312C0.355263 37.3685 0 37.7797 0 38.2447V42.3195C0 46.1341 3.05263 49.2538 6.73684 49.4248V49.4737H35.0526V49.4186C35.2631 49.4273 35.3906 49.4737 35.5354 49.4737H35.5555C39.4848 49.4507 42.6521 46.248 42.6316 42.3187V16.4211H51.1797C51.6447 16.4211 52 16.0001 52 15.5354V8.05885C52.0053 5.0202 49.5551 2.54816 46.5164 2.52637V2.52637ZM7.10526 47.7895H7.0995C4.10403 47.7895 1.68421 45.3138 1.68421 42.3187V39.0527H28.421V42.3047C28.4145 44.2003 29.1632 46.0202 30.5016 47.3623C30.6439 47.5054 30.7928 47.579 30.9449 47.7895H7.10526ZM40.9474 42.3179C40.9474 45.3138 38.551 47.7895 35.5543 47.7895H35.537C32.5255 47.7677 30.0983 45.3167 30.1053 42.3052V38.2447C30.1077 37.7731 29.7348 37.3849 29.2631 37.3685H9.06661L9.2833 7.76568C9.2833 5.80721 10.9017 4.21058 12.8914 4.21058H42.5407C41.581 5.26321 40.9474 6.59504 40.9474 8.08147V42.3179ZM50.3158 8.07365V14.7369H42.6316V8.07982C42.6316 5.97209 44.3849 4.21058 46.4918 4.21058H46.5152C48.6274 4.23155 50.3256 5.95482 50.3158 8.06749V8.07365Z" fill="#E8AA31"/>
<path d="M19.773 23.2544L24.1147 26.2228C24.398 26.4181 24.7726 26.4181 25.0559 26.2228L29.3844 23.2552C30.8881 22.2293 31.9987 20.0846 31.9987 18.2659V12.2602C32.0078 11.9427 31.8326 11.6483 31.5497 11.504L24.9391 8.25236C24.7072 8.13723 24.435 8.13723 24.2031 8.25236L17.6048 11.495C17.3219 11.6393 17.1472 11.9337 17.1566 12.2511V18.2659C17.1566 20.0846 18.2697 22.2293 19.773 23.2544ZM18.8408 12.7766L24.5777 9.94603L30.3145 12.7844V18.2659C30.3145 19.5344 29.4831 21.1479 28.4342 21.863L24.5678 24.5073L20.7166 21.8634C19.6677 21.1475 18.8408 19.5344 18.8408 18.2659V12.7766Z" fill="#E8AA31"/>
<path d="M23.1546 19.5365C23.3117 19.6969 23.5263 19.7878 23.7508 19.789H23.7529C23.9766 19.7882 24.1908 19.6986 24.3483 19.5398L27.6982 16.1887C28.0275 15.8597 28.0275 15.326 27.6986 14.9971C27.3701 14.6677 26.8363 14.6677 26.5074 14.9967L23.7558 17.7479L22.6558 16.6373C22.3281 16.3067 21.7948 16.3042 21.4642 16.6319C21.1336 16.9597 21.1316 17.493 21.4589 17.8236L23.1546 19.5365Z" fill="black"/>
<path d="M35.0526 28.6318H14.8421C14.3771 28.6318 14 29.0089 14 29.4739C14 29.939 14.3771 30.3161 14.8421 30.3161H35.0526C35.056 29.3743 35.0526 30.0108 35.0526 29.5457C35.0526 29.0807 35.0604 29.9396 35.0526 28.6318Z" fill="#E8AA31"/>
<path d="M35.0526 32.5264H14.8421C14.3771 32.5264 14 32.9034 14 33.3685C14 33.8335 14.3771 34.2106 14.8421 34.2106H35.0526C35.5177 34.2106 35.8947 33.8335 35.8947 33.3685C35.8947 32.9034 35.5177 32.5264 35.0526 32.5264Z" fill="#E8AA31"/>
</svg>
