<svg width="55" height="55" viewBox="0 0 55 55" fill="none" xmlns="http://www.w3.org/2000/svg">
<g clip-path="url(#clip0_90_9470)">
<path d="M54.8773 37.79C54.4958 36.3996 53.33 35.365 51.904 35.1511V14.2514H53.7252C54.2281 14.2514 54.6358 13.8437 54.6358 13.3408V4.23482C54.6358 3.7315 54.2281 3.32422 53.7252 3.32422H13.659C13.1561 3.32422 12.7484 3.7315 12.7484 4.23482V13.3408C12.7484 13.8437 13.1561 14.2514 13.659 14.2514H15.4802V32.4633H14.5696C12.3095 32.458 10.0957 33.1058 8.19537 34.329V29.7315C8.19537 29.2282 7.78765 28.8209 7.28478 28.8209H0.910597C0.407723 28.8209 0 29.2282 0 29.7315V50.6753C0 51.1782 0.407723 51.5859 0.910597 51.5859H7.28478C7.78765 51.5859 8.19537 51.1782 8.19537 50.6753V46.0783C10.0962 47.3006 12.3095 47.9484 14.5696 47.9435H29.5215C30.5575 47.9417 31.5886 47.8056 32.5894 47.5389L52.3046 42.2576C54.2446 41.7289 55.3939 39.7334 54.8773 37.79ZM14.5696 5.14541H52.8146V12.4302H14.5696V5.14541ZM17.3013 14.2514H50.0828V35.3076L39.5145 38.1417C39.0792 37.1039 38.1913 36.3245 37.1059 36.027L24.8365 32.7363C24.1455 32.5545 23.4341 32.4624 22.7196 32.4633H17.3013V14.2514ZM6.37418 49.7647H1.82119V30.6421H6.37418V49.7647ZM51.832 40.4982L32.1203 45.7795C31.2724 46.0058 30.3992 46.121 29.5215 46.1223H14.5696C12.4016 46.1272 10.2909 45.4238 8.55952 44.1188L8.19537 43.8458V36.561L8.55952 36.2876C10.2909 34.9826 12.4016 34.2787 14.5696 34.2845H22.7196C23.2758 34.2841 23.8303 34.3561 24.3687 34.4984L36.6342 37.7864C37.3589 37.986 37.8894 38.6072 37.9721 39.3546C37.9819 39.392 37.9939 39.4289 38.0085 39.4649C37.9979 39.504 37.9899 39.5436 37.9845 39.584C37.9854 39.7321 37.9654 39.8797 37.9245 40.022C37.7102 40.8157 36.9912 41.3674 36.1691 41.3688C36.0086 41.3701 35.8494 41.3497 35.6947 41.3088L27.9546 39.2332C27.6372 39.139 27.2935 39.2243 27.0569 39.4564C26.8208 39.6885 26.7288 40.0304 26.8173 40.3497C26.9057 40.6685 27.1605 40.9148 27.4829 40.9917L35.2229 43.0681C35.532 43.1495 35.8508 43.1904 36.1709 43.19C37.808 43.1891 39.2428 42.094 39.6754 40.5146C39.7261 40.3319 39.7604 40.1452 39.7786 39.9566L50.8796 36.9799C50.9588 36.9599 51.0446 36.9394 51.1255 36.9261C52.0321 36.8091 52.8844 37.3822 53.1188 38.2653C53.1597 38.4191 53.1801 38.5779 53.1788 38.737C53.1801 39.5614 52.6279 40.2834 51.832 40.4982Z" fill="#E8AA31"/>
<path d="M29.1372 17.8935H38.2431C38.746 17.8935 39.1537 17.4857 39.1537 16.9829C39.1537 16.4795 38.746 16.0723 38.2431 16.0723H29.1372C28.6343 16.0723 28.2266 16.4795 28.2266 16.9829C28.2266 17.4857 28.6343 17.8935 29.1372 17.8935Z" fill="black"/>
</g>
<defs>
<clipPath id="clip0_90_9470">
<rect width="55" height="55" fill="white"/>
</clipPath>
</defs>
</svg>
