<svg width="64" height="64" viewBox="0 0 64 64" fill="none" xmlns="http://www.w3.org/2000/svg">
<path d="M59.5197 28.9204L57.8624 22.2911C58.3155 22.1948 58.6555 21.7928 58.6555 21.3112V20.2423C58.6555 17.9216 56.7674 16.0336 54.4468 16.0336H46.8978V13.8288C46.8978 12.6868 45.9688 11.7578 44.8268 11.7578H6.3465C5.2045 11.7578 4.2755 12.6868 4.2755 13.8288V32.0001C4.2755 32.5534 4.72412 33.0022 5.27763 33.0022C5.831 33.0022 6.27975 32.5536 6.27975 32.0001V13.8288C6.27975 13.7919 6.30963 13.7621 6.3465 13.7621H44.8266C44.8635 13.7621 44.8934 13.7919 44.8934 13.8288V32.0003C44.8934 32.5537 45.342 33.0024 45.8955 33.0024C46.4489 33.0024 46.8976 32.5538 46.8976 32.0003V30.8643H58.7188C58.7197 30.8643 58.7205 30.8646 58.7214 30.8646C58.7224 30.8646 58.7233 30.8644 58.7241 30.8644C60.1787 30.8654 61.4139 31.8202 61.8381 33.1358H58.7221C58.1688 33.1358 57.72 33.5844 57.72 34.1379V36.2757C57.72 38.0071 59.1285 39.4156 60.8599 39.4156H61.9956V43.8247H59.3754C58.5146 41.3393 56.152 39.5491 53.3776 39.5491C50.6032 39.5491 48.2405 41.3393 47.3799 43.8247H46.8974V36.2756C46.8974 35.7222 46.4487 35.2734 45.8952 35.2734C45.3419 35.2734 44.8931 35.7221 44.8931 36.2756V43.8244H24.1021C23.2414 41.3391 20.8787 39.5488 18.1044 39.5488C15.33 39.5488 12.9672 41.3391 12.1066 43.8244H6.3465C6.30963 43.8244 6.27975 43.7946 6.27975 43.7577V41.5531H10.6221C11.1755 41.5531 11.6243 41.1044 11.6243 40.5509C11.6243 39.9974 11.1756 39.5488 10.6221 39.5488H1.00213C0.44875 39.5488 0 39.9974 0 40.5509C0 41.1044 0.448625 41.5531 1.00213 41.5531H4.27563V43.7577C4.27563 44.8997 5.20463 45.8287 6.34662 45.8287H11.7596C11.7594 45.8509 11.7579 45.8731 11.7579 45.8954C11.7579 49.3949 14.605 52.2419 18.1044 52.2419C21.6038 52.2419 24.4509 49.3949 24.4509 45.8954C24.4509 45.8729 24.4494 45.8509 24.4491 45.8287H47.0329C47.0326 45.8509 47.0311 45.8731 47.0311 45.8954C47.0311 49.3949 49.8783 52.2419 53.3776 52.2419C56.877 52.2419 59.7241 49.3949 59.7241 45.8954C59.7241 45.8729 59.7226 45.8509 59.7224 45.8287H62.9977C63.5511 45.8287 63.9999 45.3801 63.9999 44.8266V34.1377C64 31.4987 62.0529 29.3061 59.5197 28.9204ZM46.8978 18.0377H54.4468C55.6624 18.0377 56.6514 19.0267 56.6514 20.2423V20.3091H46.8978V18.0377ZM46.8978 28.8602V22.3132H55.8021L57.4389 28.8602H46.8978ZM18.1044 50.2381C15.71 50.2381 13.762 48.2902 13.762 45.8957C13.762 43.5012 15.71 41.5533 18.1044 41.5533C20.4988 41.5533 22.4468 43.5012 22.4468 45.8957C22.4468 48.2902 20.4988 50.2381 18.1044 50.2381ZM53.3779 50.2381C50.9835 50.2381 49.0355 48.2902 49.0355 45.8957C49.0355 43.5012 50.9835 41.5533 53.3779 41.5533C55.7723 41.5533 57.7202 43.5012 57.7202 45.8957C57.7202 48.2902 55.7723 50.2381 53.3779 50.2381ZM61.9959 37.4113H60.8601C60.2339 37.4113 59.7244 36.9018 59.7244 36.2756V35.1398H61.9958V37.4113H61.9959Z" fill="#E8AA31"/>
<path d="M18.1062 43.8242C16.9642 43.8242 16.0352 44.7532 16.0352 45.8952C16.0352 47.0372 16.9642 47.9662 18.1062 47.9662C19.2482 47.9662 20.1772 47.0372 20.1772 45.8952C20.1772 44.7532 19.2482 43.8242 18.1062 43.8242Z" fill="#E8AA31"/>
<path d="M53.3796 43.8242C52.2376 43.8242 51.3086 44.7532 51.3086 45.8952C51.3086 47.0372 52.2376 47.9662 53.3796 47.9662C54.5216 47.9662 55.4506 47.0372 55.4506 45.8952C55.4506 44.7532 54.5216 43.8242 53.3796 43.8242Z" fill="#E8AA31"/>
<path d="M41.619 39.5488H26.6545C26.1011 39.5488 25.6523 39.9975 25.6523 40.551C25.6523 41.1045 26.101 41.5531 26.6545 41.5531H41.619C42.1723 41.5531 42.6211 41.1045 42.6211 40.551C42.6211 39.9975 42.1725 39.5488 41.619 39.5488Z" fill="#E8AA31"/>
<path d="M15.9656 35.2734H3.13884C2.58547 35.2734 2.13672 35.7221 2.13672 36.2756C2.13672 36.8291 2.58534 37.2777 3.13884 37.2777H15.9656C16.519 37.2777 16.9677 36.8291 16.9677 36.2756C16.9677 35.7221 16.519 35.2734 15.9656 35.2734Z" fill="#E8AA31"/>
<path d="M34.847 21.6714C34.4558 21.2801 33.8212 21.2801 33.4299 21.6715L24.5184 30.5828L19.8825 25.947C19.4912 25.5556 18.8567 25.5556 18.4654 25.947C18.074 26.3383 18.074 26.9727 18.4654 27.3641L23.8099 32.7086C24.0055 32.9043 24.262 33.0021 24.5184 33.0021C24.7748 33.0021 25.0314 32.9043 25.2269 32.7086L34.8469 23.0886C35.2383 22.6971 35.2383 22.0627 34.847 21.6714Z" fill="black"/>
</svg>
