<svg width="168" height="256" viewBox="0 0 168 256" fill="none" xmlns="http://www.w3.org/2000/svg">
<path fill-rule="evenodd" clip-rule="evenodd" d="M0 -34H168V157H0V-34Z" fill="#4AF6CD"/>
<path d="M60.22 121.36C60.22 118.2 60.68 115.42 61.6 113.02C62.52 110.58 63.9 108.4 65.74 106.48L71.62 111.46C69.34 114.34 68.2 117.36 68.2 120.52C68.2 122.16 68.52 123.42 69.16 124.3C69.76 125.14 70.62 125.56 71.74 125.56C72.54 125.56 73.2 125.34 73.72 124.9C74.24 124.46 74.74 123.72 75.22 122.68C75.7 121.64 76.3 120 77.02 117.76C78.38 113.48 80.1 110.36 82.18 108.4C84.22 106.4 87.06 105.4 90.7 105.4C93.34 105.4 95.68 106.08 97.72 107.44C99.72 108.8 101.28 110.78 102.4 113.38C103.52 115.94 104.08 118.96 104.08 122.44C104.08 129.08 102.06 134.5 98.02 138.7L91.96 133.24C94.68 129.92 96.04 126.46 96.04 122.86C96.04 120.98 95.64 119.52 94.84 118.48C94 117.44 92.9 116.92 91.54 116.92C90.58 116.92 89.8 117.12 89.2 117.52C88.56 117.92 88 118.64 87.52 119.68C87 120.68 86.44 122.16 85.84 124.12C84.36 128.84 82.58 132.16 80.5 134.08C78.42 136 75.8 136.96 72.64 136.96C70.16 136.96 67.98 136.3 66.1 134.98C64.22 133.62 62.78 131.76 61.78 129.4C60.74 127 60.22 124.32 60.22 121.36ZM89.02 67.9553C91.9 67.9553 94.48 68.5953 96.76 69.8753C99.04 71.1153 100.84 72.9953 102.16 75.5153C103.44 78.0353 104.08 81.1153 104.08 84.7553C104.08 90.2753 102.74 94.4553 100.06 97.2953C97.34 100.135 93.66 101.555 89.02 101.555H61.3V90.4553H88.66C91.18 90.4553 93.04 90.0153 94.24 89.1353C95.4 88.2153 95.98 86.7553 95.98 84.7553C95.98 82.7553 95.38 81.3153 94.18 80.4353C92.98 79.5553 91.14 79.1153 88.66 79.1153H61.3V67.9553H89.02ZM87.64 47.9477V51.0077H103V62.1077H61.3V47.6477C61.3 41.7677 62.36 37.3877 64.48 34.5077C66.6 31.5877 69.86 30.1277 74.26 30.1277C76.9 30.1277 79.1 30.7477 80.86 31.9877C82.62 33.1877 84.2 35.1277 85.6 37.8077L103 27.4277V39.7877L87.64 47.9477ZM80.08 51.0077V47.2877C80.08 43.4477 78.14 41.5277 74.26 41.5277C72.46 41.5277 71.14 42.0677 70.3 43.1477C69.46 44.1877 69.04 45.7677 69.04 47.8877V51.0077H80.08ZM103 24.9006H61.3V-0.719377L69.16 0.420624V13.8006H79.18V2.04062H87.04V13.8006H103V24.9006Z" fill="white"/>
<path d="M60.22 233.92C60.22 228.36 61.98 223.58 65.5 219.58L71.2 225.04C70.12 226.56 69.34 227.94 68.86 229.18C68.34 230.38 68.08 231.76 68.08 233.32C68.08 236.32 69.24 238.68 71.56 240.4C73.88 242.08 77.42 242.92 82.18 242.92C85.66 242.92 88.42 242.64 90.46 242.08C92.46 241.52 93.9 240.68 94.78 239.56C95.66 238.4 96.1 236.92 96.1 235.12C96.1 233.32 95.72 231.68 94.96 230.2H86.38V234.94L78.76 236.02V219.46H99.52C100.96 221.62 102.08 224.06 102.88 226.78C103.68 229.5 104.08 232.18 104.08 234.82C104.08 247.86 96.76 254.38 82.12 254.38C77.56 254.38 73.64 253.5 70.36 251.74C67.04 249.94 64.52 247.5 62.8 244.42C61.08 241.34 60.22 237.84 60.22 233.92ZM60.22 196.335C60.22 190.295 62.14 185.595 65.98 182.235C69.82 178.875 75.2 177.195 82.12 177.195C86.64 177.195 90.56 177.955 93.88 179.475C97.16 180.955 99.68 183.135 101.44 186.015C103.2 188.895 104.08 192.335 104.08 196.335C104.08 202.375 102.16 207.075 98.32 210.435C94.48 213.755 89.08 215.415 82.12 215.415C77.6 215.415 73.7 214.675 70.42 213.195C67.14 211.675 64.62 209.495 62.86 206.655C61.1 203.775 60.22 200.335 60.22 196.335ZM68.2 196.335C68.2 198.935 69.28 200.855 71.44 202.095C73.6 203.295 77.16 203.895 82.12 203.895C87.08 203.895 90.66 203.275 92.86 202.035C95.02 200.795 96.1 198.895 96.1 196.335C96.1 193.695 95.02 191.775 92.86 190.575C90.7 189.375 87.12 188.775 82.12 188.775C77.16 188.775 73.6 189.375 71.44 190.575C69.28 191.775 68.2 193.695 68.2 196.335Z" fill="white"/>
<rect x="83" y="167" width="20" height="1" transform="rotate(-90 83 167)" fill="white"/>
</svg>
