<svg width="981" height="472" viewBox="0 0 981 472" fill="none" xmlns="http://www.w3.org/2000/svg">
<g opacity="0.29827">
<path d="M1008.08 139.448L443.182 -380.858V-771.19L28.1096 -794C24.9043 -786.456 4.36709 -764.714 7.57176 -752.596C11.43 -738.102 30.8387 -742.735 36.4776 -733.409C43.0661 -722.42 31.7291 -677.749 28.3457 -664.86C21.8759 -640.445 7.09676 -620.665 2.82235 -596.25C-4.35982 -555.263 10.1824 -558.53 37.7242 -532.927C84.141 -489.742 46.9244 -444.952 58.6176 -394.223C68.1146 -352.878 109.605 -331.554 124.8 -290.211C136.553 -258.37 152.697 -250.233 177.746 -226.947C177.153 -241.084 164.51 -282.785 188.253 -279.102C211.817 -275.478 202.736 -240.669 207.247 -226.115C211.045 -213.997 237.933 -189.761 215.616 -178.593C208.196 -174.91 187.066 -189.582 178.577 -193.503C184.572 -174.791 180.774 -155.367 190.271 -137.487C201.608 -116.162 213.835 -124.359 228.853 -112.775C244.344 -100.836 242.683 -87.1137 235.797 -69.0554C228.615 -50.2247 221.196 -53.1352 232.592 -30.4434C240.843 -14.0488 254.85 6.74211 266.9 19.2164C273.904 26.4634 281.502 28.1267 288.506 37.3932C294.323 45.1155 292.067 55.2142 299.012 62.1638C310.883 74.1037 331.006 74.282 340.384 89.9044C350.831 107.309 338.96 120.437 369.706 118.833C371.309 153.643 377.897 185.185 377.541 219.994C394.695 226.825 422.414 218.687 440.399 215.063C458.266 239.18 481.355 222.429 501.774 235.558C510.678 241.26 508.837 255.517 514.239 260.506C525.339 270.723 533.529 264.308 547.301 267.872C557.51 270.486 565.404 277.97 575.138 280.703C584.338 283.257 599.475 277.258 606.301 285.396C614.492 295.138 600.78 312.958 613.127 320.799C623.395 327.333 638.115 311.77 648.088 314.027C659.721 316.7 693.079 347.174 701.271 357.212C710.59 368.677 719.969 390.062 725.25 404.793C733.501 427.841 732.373 439.127 749.408 455.998C760.27 466.75 749.942 467.522 767.63 470.67C779.204 472.749 794.518 464.374 806.212 463.067C830.549 460.394 855.122 465.027 879.102 460.453C901.421 456.176 922.729 449.166 945.64 445.899C965.465 443.048 1000.37 445.246 1017.94 435.801C1036.99 425.643 1038.71 402.654 1011.17 406.932C1008.97 392.26 1018.77 372.003 1007.85 361.847C1023.04 341.056 1028.56 326.384 1030.93 300.959C1032 289.792 1032.48 277.436 1038 268.05C1043.4 258.783 1058.59 253.259 1061.56 245.299C1066.13 232.943 1058.83 227.419 1053.25 220.528C1049.69 216.073 1039.54 218.212 1036.63 214.291C1031.23 207.103 1036.57 199.678 1033.6 192.431C1024.94 171.462 1014.61 163.205 1008.08 139.444C1008.26 143.424 1008.44 147.463 1008.2 151.384" stroke="white" stroke-width="2" stroke-linecap="round" stroke-linejoin="round"/>
</g>
<path d="M729.114 59.9394C720.546 83.3208 740.614 91.5255 756.675 106.807C761.434 111.336 761.888 118.817 756.879 123.342C746.107 133.074 705.264 118.917 707.854 131.745C710.53 144.994 745.061 163.531 746.618 164.799C760.284 175.932 764.735 204.174 757.208 219.658C751.852 230.676 716.342 226.962 705.172 223.293C632.024 199.266 664.985 202.131 582.817 194.67C576.527 194.099 569.935 193.806 563.894 195.65C557.671 197.549 557.869 205.339 559.957 209.55C566.876 223.506 597.849 247.178 589.514 265.523C586.956 271.152 580.963 274.707 578.264 280.27C576.151 284.627 576.385 289.772 575.445 294.523" stroke="white" stroke-width="2"/>
<path fill-rule="evenodd" clip-rule="evenodd" d="M573.5 302C577.09 302 580 299.09 580 295.5C580 291.91 577.09 289 573.5 289C569.91 289 567 291.91 567 295.5C567 299.09 569.91 302 573.5 302Z" fill="#4AF6CD"/>
<path fill-rule="evenodd" clip-rule="evenodd" d="M661 339C662.657 339 664 337.657 664 336C664 334.343 662.657 333 661 333C659.343 333 658 334.343 658 336C658 337.657 659.343 339 661 339Z" fill="#4AF6CD"/>
<path fill-rule="evenodd" clip-rule="evenodd" d="M725 447C726.657 447 728 445.657 728 444C728 442.343 726.657 441 725 441C723.343 441 722 442.343 722 444C722 445.657 723.343 447 725 447Z" fill="#4AF6CD"/>
<path fill-rule="evenodd" clip-rule="evenodd" d="M365 204C366.657 204 368 202.657 368 201C368 199.343 366.657 198 365 198C363.343 198 362 199.343 362 201C362 202.657 363.343 204 365 204Z" fill="#4AF6CD"/>
<path fill-rule="evenodd" clip-rule="evenodd" d="M729.5 67C733.09 67 736 64.0899 736 60.5C736 56.9101 733.09 54 729.5 54C725.91 54 723 56.9101 723 60.5C723 64.0899 725.91 67 729.5 67Z" fill="#4AF6CD"/>
<path d="M398.41 286.976L396.17 298H394.218L392.186 288.768L390.138 298H388.234L385.994 286.976H387.482L389.258 296.672L391.386 286.976H393.002L395.178 296.672L397.018 286.976H398.41ZM406.544 293.536C406.544 293.781 406.534 294.032 406.512 294.288H401.136C401.2 295.216 401.435 295.899 401.84 296.336C402.246 296.773 402.768 296.992 403.408 296.992C403.814 296.992 404.187 296.933 404.528 296.816C404.87 296.699 405.227 296.512 405.6 296.256L406.24 297.136C405.344 297.84 404.363 298.192 403.296 298.192C402.123 298.192 401.206 297.808 400.544 297.04C399.894 296.272 399.568 295.216 399.568 293.872C399.568 292.997 399.707 292.224 399.984 291.552C400.272 290.869 400.678 290.336 401.2 289.952C401.734 289.568 402.358 289.376 403.072 289.376C404.192 289.376 405.051 289.744 405.648 290.48C406.246 291.216 406.544 292.235 406.544 293.536ZM405.088 293.104C405.088 292.272 404.923 291.637 404.592 291.2C404.262 290.763 403.766 290.544 403.104 290.544C401.899 290.544 401.243 291.429 401.136 293.2H405.088V293.104ZM411.183 289.376C411.759 289.376 412.276 289.456 412.735 289.616C413.194 289.776 413.631 290.016 414.047 290.336L413.423 291.264C413.039 291.019 412.671 290.837 412.319 290.72C411.978 290.603 411.615 290.544 411.231 290.544C410.751 290.544 410.372 290.645 410.095 290.848C409.818 291.04 409.679 291.307 409.679 291.648C409.679 291.989 409.807 292.256 410.063 292.448C410.33 292.64 410.804 292.827 411.487 293.008C412.426 293.243 413.124 293.563 413.583 293.968C414.052 294.373 414.287 294.928 414.287 295.632C414.287 296.464 413.962 297.099 413.311 297.536C412.671 297.973 411.887 298.192 410.959 298.192C409.679 298.192 408.618 297.824 407.775 297.088L408.559 296.192C409.274 296.736 410.063 297.008 410.927 297.008C411.482 297.008 411.919 296.896 412.239 296.672C412.57 296.437 412.735 296.123 412.735 295.728C412.735 295.44 412.676 295.211 412.559 295.04C412.442 294.859 412.239 294.704 411.951 294.576C411.663 294.437 411.242 294.293 410.687 294.144C409.791 293.909 409.14 293.595 408.735 293.2C408.34 292.805 408.143 292.304 408.143 291.696C408.143 291.259 408.271 290.864 408.527 290.512C408.794 290.149 409.156 289.872 409.615 289.68C410.084 289.477 410.607 289.376 411.183 289.376ZM420.62 297.616C420.065 298 419.436 298.192 418.732 298.192C418.017 298.192 417.457 297.989 417.052 297.584C416.657 297.168 416.46 296.571 416.46 295.792V290.704H414.988V289.568H416.46V287.664L417.932 287.488V289.568H419.932L419.772 290.704H417.932V295.728C417.932 296.165 418.006 296.485 418.156 296.688C418.316 296.88 418.577 296.976 418.94 296.976C419.27 296.976 419.644 296.864 420.06 296.64L420.62 297.616ZM429.179 286.784C429.915 286.784 430.545 286.891 431.067 287.104C431.59 287.307 432.097 287.627 432.587 288.064L431.755 288.992C431.339 288.661 430.929 288.421 430.523 288.272C430.129 288.112 429.702 288.032 429.243 288.032C428.667 288.032 428.193 288.165 427.819 288.432C427.446 288.699 427.259 289.088 427.259 289.6C427.259 289.92 427.323 290.192 427.451 290.416C427.579 290.629 427.814 290.827 428.155 291.008C428.507 291.189 429.014 291.381 429.675 291.584C430.369 291.797 430.945 292.027 431.403 292.272C431.862 292.517 432.23 292.859 432.507 293.296C432.795 293.723 432.939 294.267 432.939 294.928C432.939 295.568 432.779 296.133 432.459 296.624C432.15 297.115 431.697 297.499 431.099 297.776C430.513 298.053 429.814 298.192 429.003 298.192C427.478 298.192 426.23 297.717 425.259 296.768L426.091 295.84C426.539 296.203 426.993 296.48 427.451 296.672C427.91 296.853 428.422 296.944 428.987 296.944C429.67 296.944 430.235 296.779 430.683 296.448C431.131 296.107 431.355 295.616 431.355 294.976C431.355 294.613 431.286 294.315 431.147 294.08C431.009 293.835 430.769 293.616 430.427 293.424C430.097 293.232 429.611 293.04 428.971 292.848C427.841 292.507 427.014 292.096 426.491 291.616C425.969 291.136 425.707 290.485 425.707 289.664C425.707 289.109 425.851 288.613 426.139 288.176C426.438 287.739 426.849 287.397 427.371 287.152C427.905 286.907 428.507 286.784 429.179 286.784ZM439.066 289.376C439.834 289.376 440.431 289.605 440.858 290.064C441.295 290.523 441.514 291.152 441.514 291.952V298H440.042V292.16C440.042 291.563 439.925 291.141 439.69 290.896C439.466 290.651 439.135 290.528 438.698 290.528C438.261 290.528 437.871 290.656 437.53 290.912C437.189 291.168 436.869 291.531 436.57 292V298H435.098V286.192L436.57 286.032V290.736C437.231 289.829 438.063 289.376 439.066 289.376ZM447.641 289.376C448.825 289.376 449.742 289.771 450.393 290.56C451.054 291.349 451.385 292.421 451.385 293.776C451.385 294.651 451.236 295.424 450.937 296.096C450.638 296.757 450.206 297.275 449.641 297.648C449.076 298.011 448.404 298.192 447.625 298.192C446.441 298.192 445.518 297.797 444.857 297.008C444.196 296.219 443.865 295.147 443.865 293.792C443.865 292.917 444.014 292.149 444.313 291.488C444.612 290.816 445.044 290.299 445.609 289.936C446.174 289.563 446.852 289.376 447.641 289.376ZM447.641 290.56C446.18 290.56 445.449 291.637 445.449 293.792C445.449 295.936 446.174 297.008 447.625 297.008C449.076 297.008 449.801 295.931 449.801 293.776C449.801 291.632 449.081 290.56 447.641 290.56ZM457.481 289.376C457.78 289.376 458.057 289.408 458.313 289.472L458.041 290.912C457.785 290.848 457.54 290.816 457.305 290.816C456.782 290.816 456.361 291.008 456.041 291.392C455.721 291.776 455.47 292.373 455.289 293.184V298H453.817V289.568H455.081L455.225 291.28C455.449 290.651 455.753 290.176 456.137 289.856C456.521 289.536 456.969 289.376 457.481 289.376ZM465.872 293.536C465.872 293.781 465.862 294.032 465.84 294.288H460.464C460.528 295.216 460.763 295.899 461.168 296.336C461.574 296.773 462.096 296.992 462.736 296.992C463.142 296.992 463.515 296.933 463.856 296.816C464.198 296.699 464.555 296.512 464.928 296.256L465.568 297.136C464.672 297.84 463.691 298.192 462.624 298.192C461.451 298.192 460.534 297.808 459.872 297.04C459.222 296.272 458.896 295.216 458.896 293.872C458.896 292.997 459.035 292.224 459.312 291.552C459.6 290.869 460.006 290.336 460.528 289.952C461.062 289.568 461.686 289.376 462.4 289.376C463.52 289.376 464.379 289.744 464.976 290.48C465.574 291.216 465.872 292.235 465.872 293.536ZM464.416 293.104C464.416 292.272 464.251 291.637 463.92 291.2C463.59 290.763 463.094 290.544 462.432 290.544C461.227 290.544 460.571 291.429 460.464 293.2H464.416V293.104ZM474.41 285.184V299.568H474.058V285.184H474.41ZM493.237 298H491.765L491.381 293.024C491.221 291.072 491.131 289.573 491.109 288.528L488.725 296.752H487.301L484.789 288.512C484.789 289.845 484.72 291.387 484.581 293.136L484.213 298H482.773L483.685 286.976H485.733L488.053 294.992L490.261 286.976H492.325L493.237 298ZM501.434 296.032C501.434 296.373 501.493 296.629 501.61 296.8C501.728 296.96 501.904 297.083 502.138 297.168L501.802 298.192C501.365 298.139 501.013 298.016 500.746 297.824C500.48 297.632 500.282 297.333 500.154 296.928C499.589 297.771 498.752 298.192 497.642 298.192C496.81 298.192 496.154 297.957 495.674 297.488C495.194 297.019 494.954 296.405 494.954 295.648C494.954 294.752 495.274 294.064 495.914 293.584C496.565 293.104 497.482 292.864 498.666 292.864H499.962V292.24C499.962 291.643 499.818 291.216 499.53 290.96C499.242 290.704 498.8 290.576 498.202 290.576C497.584 290.576 496.826 290.725 495.93 291.024L495.562 289.952C496.608 289.568 497.578 289.376 498.474 289.376C499.466 289.376 500.208 289.621 500.698 290.112C501.189 290.592 501.434 291.28 501.434 292.176V296.032ZM497.978 297.088C498.821 297.088 499.482 296.651 499.962 295.776V293.84H498.858C497.301 293.84 496.522 294.416 496.522 295.568C496.522 296.069 496.645 296.448 496.89 296.704C497.136 296.96 497.498 297.088 497.978 297.088ZM505.981 298.192C505.437 298.192 505.005 298.032 504.685 297.712C504.376 297.381 504.221 296.923 504.221 296.336V286.176L505.693 286V296.304C505.693 296.539 505.731 296.709 505.805 296.816C505.891 296.923 506.029 296.976 506.221 296.976C506.424 296.976 506.605 296.944 506.765 296.88L507.149 297.904C506.797 298.096 506.408 298.192 505.981 298.192ZM510.461 289.568V298H508.989V289.568H510.461ZM509.709 285.52C510.018 285.52 510.269 285.616 510.461 285.808C510.653 286 510.749 286.24 510.749 286.528C510.749 286.816 510.653 287.056 510.461 287.248C510.269 287.429 510.018 287.52 509.709 287.52C509.41 287.52 509.165 287.429 508.973 287.248C508.781 287.056 508.685 286.816 508.685 286.528C508.685 286.24 508.781 286 508.973 285.808C509.165 285.616 509.41 285.52 509.709 285.52ZM517.36 289.376C518.32 289.376 519.083 289.765 519.648 290.544C520.214 291.312 520.496 292.389 520.496 293.776C520.496 294.651 520.363 295.424 520.096 296.096C519.83 296.757 519.446 297.275 518.944 297.648C518.443 298.011 517.856 298.192 517.184 298.192C516.299 298.192 515.552 297.819 514.944 297.072L514.8 298H513.504V286.176L514.976 286V290.624C515.584 289.792 516.379 289.376 517.36 289.376ZM516.832 297.024C517.483 297.024 517.99 296.763 518.352 296.24C518.726 295.707 518.912 294.885 518.912 293.776C518.912 292.635 518.742 291.813 518.4 291.312C518.059 290.8 517.574 290.544 516.944 290.544C516.198 290.544 515.542 290.981 514.976 291.856V295.888C515.2 296.24 515.472 296.517 515.792 296.72C516.123 296.923 516.47 297.024 516.832 297.024ZM529.276 298H528.012L527.9 296.688C527.58 297.211 527.212 297.595 526.796 297.84C526.38 298.075 525.874 298.192 525.276 298.192C524.54 298.192 523.964 297.968 523.548 297.52C523.132 297.072 522.924 296.437 522.924 295.616V289.568H524.396V295.456C524.396 296.032 524.498 296.443 524.7 296.688C524.903 296.923 525.234 297.04 525.692 297.04C526.514 297.04 527.218 296.555 527.804 295.584V289.568H529.276V298ZM532.701 295.968C533.021 295.968 533.288 296.075 533.501 296.288C533.714 296.501 533.821 296.763 533.821 297.072C533.821 297.403 533.725 297.781 533.533 298.208L532.461 300.656H531.405L532.045 298C531.906 297.893 531.794 297.76 531.709 297.6C531.634 297.44 531.597 297.264 531.597 297.072C531.597 296.763 531.704 296.501 531.917 296.288C532.13 296.075 532.392 295.968 532.701 295.968ZM544.331 286.784C544.992 286.784 545.547 286.869 545.995 287.04C546.454 287.211 546.918 287.488 547.387 287.872L546.555 288.848C545.883 288.304 545.174 288.032 544.427 288.032C543.51 288.032 542.768 288.384 542.203 289.088C541.648 289.792 541.371 290.923 541.371 292.48C541.371 293.995 541.648 295.115 542.203 295.84C542.758 296.555 543.494 296.912 544.411 296.912C544.88 296.912 545.291 296.832 545.643 296.672C545.995 296.512 546.368 296.288 546.763 296L547.515 296.96C547.174 297.312 546.736 297.605 546.203 297.84C545.67 298.075 545.056 298.192 544.363 298.192C543.467 298.192 542.667 297.973 541.963 297.536C541.27 297.088 540.726 296.437 540.331 295.584C539.947 294.72 539.755 293.685 539.755 292.48C539.755 291.275 539.958 290.245 540.363 289.392C540.768 288.528 541.318 287.877 542.011 287.44C542.704 287.003 543.478 286.784 544.331 286.784ZM555.3 298L554.468 295.232H550.292L549.46 298H547.924L551.46 286.976H553.38L556.9 298H555.3ZM550.66 294H554.1L552.388 288.24L550.66 294Z" fill="white"/>
<path d="M598.378 51.784C599.039 51.784 599.594 51.8693 600.042 52.04C600.501 52.2107 600.965 52.488 601.434 52.872L600.602 53.848C599.93 53.304 599.221 53.032 598.474 53.032C597.557 53.032 596.815 53.384 596.25 54.088C595.695 54.792 595.418 55.9227 595.418 57.48C595.418 58.9947 595.695 60.1147 596.25 60.84C596.805 61.5547 597.541 61.912 598.458 61.912C598.927 61.912 599.338 61.832 599.69 61.672C600.042 61.512 600.415 61.288 600.81 61L601.562 61.96C601.221 62.312 600.783 62.6053 600.25 62.84C599.717 63.0747 599.103 63.192 598.41 63.192C597.514 63.192 596.714 62.9733 596.01 62.536C595.317 62.088 594.773 61.4373 594.378 60.584C593.994 59.72 593.802 58.6853 593.802 57.48C593.802 56.2747 594.005 55.2453 594.41 54.392C594.815 53.528 595.365 52.8773 596.058 52.44C596.751 52.0027 597.525 51.784 598.378 51.784ZM609.401 63H608.137L608.025 61.688C607.705 62.2107 607.337 62.5947 606.921 62.84C606.505 63.0747 605.999 63.192 605.401 63.192C604.665 63.192 604.089 62.968 603.673 62.52C603.257 62.072 603.049 61.4373 603.049 60.616V54.568H604.521V60.456C604.521 61.032 604.623 61.4427 604.825 61.688C605.028 61.9227 605.359 62.04 605.817 62.04C606.639 62.04 607.343 61.5547 607.929 60.584V54.568H609.401V63ZM616.106 54.376C616.405 54.376 616.682 54.408 616.938 54.472L616.666 55.912C616.41 55.848 616.165 55.816 615.93 55.816C615.407 55.816 614.986 56.008 614.666 56.392C614.346 56.776 614.095 57.3733 613.914 58.184V63H612.442V54.568H613.706L613.85 56.28C614.074 55.6507 614.378 55.176 614.762 54.856C615.146 54.536 615.594 54.376 616.106 54.376ZM622.278 54.376C622.576 54.376 622.854 54.408 623.11 54.472L622.838 55.912C622.582 55.848 622.336 55.816 622.102 55.816C621.579 55.816 621.158 56.008 620.838 56.392C620.518 56.776 620.267 57.3733 620.086 58.184V63H618.614V54.568H619.878L620.022 56.28C620.246 55.6507 620.55 55.176 620.934 54.856C621.318 54.536 621.766 54.376 622.278 54.376ZM630.669 58.536C630.669 58.7813 630.659 59.032 630.637 59.288H625.261C625.325 60.216 625.56 60.8987 625.965 61.336C626.371 61.7733 626.893 61.992 627.533 61.992C627.939 61.992 628.312 61.9333 628.653 61.816C628.995 61.6987 629.352 61.512 629.725 61.256L630.365 62.136C629.469 62.84 628.488 63.192 627.421 63.192C626.248 63.192 625.331 62.808 624.669 62.04C624.019 61.272 623.693 60.216 623.693 58.872C623.693 57.9973 623.832 57.224 624.109 56.552C624.397 55.8693 624.803 55.336 625.325 54.952C625.859 54.568 626.483 54.376 627.197 54.376C628.317 54.376 629.176 54.744 629.773 55.48C630.371 56.216 630.669 57.2347 630.669 58.536ZM629.213 58.104C629.213 57.272 629.048 56.6373 628.717 56.2C628.387 55.7627 627.891 55.544 627.229 55.544C626.024 55.544 625.368 56.4293 625.261 58.2H629.213V58.104ZM636.988 54.376C637.756 54.376 638.353 54.6053 638.78 55.064C639.217 55.5227 639.436 56.152 639.436 56.952V63H637.964V57.16C637.964 56.5627 637.852 56.1413 637.628 55.896C637.404 55.6507 637.073 55.528 636.636 55.528C636.188 55.528 635.793 55.656 635.452 55.912C635.111 56.168 634.791 56.536 634.492 57.016V63H633.02V54.568H634.284L634.412 55.816C634.711 55.368 635.079 55.016 635.516 54.76C635.964 54.504 636.455 54.376 636.988 54.376ZM646.651 62.616C646.096 63 645.467 63.192 644.763 63.192C644.048 63.192 643.488 62.9893 643.083 62.584C642.688 62.168 642.491 61.5707 642.491 60.792V55.704H641.019V54.568H642.491V52.664L643.963 52.488V54.568H645.963L645.803 55.704H643.963V60.728C643.963 61.1653 644.038 61.4853 644.187 61.688C644.347 61.88 644.608 61.976 644.971 61.976C645.302 61.976 645.675 61.864 646.091 61.64L646.651 62.616ZM654.011 51.976V61.672H658.539L658.363 63H652.491V51.976H654.011ZM663.141 54.376C664.325 54.376 665.242 54.7707 665.893 55.56C666.554 56.3493 666.885 57.4213 666.885 58.776C666.885 59.6507 666.736 60.424 666.437 61.096C666.138 61.7573 665.706 62.2747 665.141 62.648C664.576 63.0107 663.904 63.192 663.125 63.192C661.941 63.192 661.018 62.7973 660.357 62.008C659.696 61.2187 659.365 60.1467 659.365 58.792C659.365 57.9173 659.514 57.1493 659.813 56.488C660.112 55.816 660.544 55.2987 661.109 54.936C661.674 54.5627 662.352 54.376 663.141 54.376ZM663.141 55.56C661.68 55.56 660.949 56.6373 660.949 58.792C660.949 60.936 661.674 62.008 663.125 62.008C664.576 62.008 665.301 60.9307 665.301 58.776C665.301 56.632 664.581 55.56 663.141 55.56ZM672.389 54.376C672.89 54.376 673.349 54.4507 673.765 54.6C674.181 54.7387 674.581 54.968 674.965 55.288L674.261 56.216C673.962 56.0027 673.669 55.848 673.381 55.752C673.104 55.6453 672.794 55.592 672.453 55.592C671.77 55.592 671.237 55.864 670.853 56.408C670.48 56.952 670.293 57.7573 670.293 58.824C670.293 59.8907 670.48 60.68 670.853 61.192C671.226 61.6933 671.76 61.944 672.453 61.944C672.784 61.944 673.088 61.896 673.365 61.8C673.642 61.6933 673.952 61.528 674.293 61.304L674.965 62.264C674.197 62.8827 673.338 63.192 672.389 63.192C671.248 63.192 670.346 62.808 669.685 62.04C669.034 61.272 668.709 60.2107 668.709 58.856C668.709 57.96 668.858 57.176 669.157 56.504C669.456 55.832 669.877 55.3093 670.421 54.936C670.976 54.5627 671.632 54.376 672.389 54.376ZM682.481 61.032C682.481 61.3733 682.54 61.6293 682.657 61.8C682.775 61.96 682.951 62.0827 683.185 62.168L682.849 63.192C682.412 63.1387 682.06 63.016 681.793 62.824C681.527 62.632 681.329 62.3333 681.201 61.928C680.636 62.7707 679.799 63.192 678.689 63.192C677.857 63.192 677.201 62.9573 676.721 62.488C676.241 62.0187 676.001 61.4053 676.001 60.648C676.001 59.752 676.321 59.064 676.961 58.584C677.612 58.104 678.529 57.864 679.713 57.864H681.009V57.24C681.009 56.6427 680.865 56.216 680.577 55.96C680.289 55.704 679.847 55.576 679.249 55.576C678.631 55.576 677.873 55.7253 676.977 56.024L676.609 54.952C677.655 54.568 678.625 54.376 679.521 54.376C680.513 54.376 681.255 54.6213 681.745 55.112C682.236 55.592 682.481 56.28 682.481 57.176V61.032ZM679.025 62.088C679.868 62.088 680.529 61.6507 681.009 60.776V58.84H679.905C678.348 58.84 677.569 59.416 677.569 60.568C677.569 61.0693 677.692 61.448 677.937 61.704C678.183 61.96 678.545 62.088 679.025 62.088ZM689.76 62.616C689.206 63 688.576 63.192 687.872 63.192C687.158 63.192 686.598 62.9893 686.192 62.584C685.798 62.168 685.6 61.5707 685.6 60.792V55.704H684.128V54.568H685.6V52.664L687.072 52.488V54.568H689.072L688.912 55.704H687.072V60.728C687.072 61.1653 687.147 61.4853 687.296 61.688C687.456 61.88 687.718 61.976 688.08 61.976C688.411 61.976 688.784 61.864 689.2 61.64L689.76 62.616ZM692.758 54.568V63H691.286V54.568H692.758ZM692.006 50.52C692.315 50.52 692.566 50.616 692.758 50.808C692.95 51 693.046 51.24 693.046 51.528C693.046 51.816 692.95 52.056 692.758 52.248C692.566 52.4293 692.315 52.52 692.006 52.52C691.707 52.52 691.462 52.4293 691.27 52.248C691.078 52.056 690.982 51.816 690.982 51.528C690.982 51.24 691.078 51 691.27 50.808C691.462 50.616 691.707 50.52 692.006 50.52ZM698.969 54.376C700.153 54.376 701.071 54.7707 701.721 55.56C702.383 56.3493 702.713 57.4213 702.713 58.776C702.713 59.6507 702.564 60.424 702.265 61.096C701.967 61.7573 701.535 62.2747 700.969 62.648C700.404 63.0107 699.732 63.192 698.953 63.192C697.769 63.192 696.847 62.7973 696.185 62.008C695.524 61.2187 695.193 60.1467 695.193 58.792C695.193 57.9173 695.343 57.1493 695.641 56.488C695.94 55.816 696.372 55.2987 696.937 54.936C697.503 54.5627 698.18 54.376 698.969 54.376ZM698.969 55.56C697.508 55.56 696.777 56.6373 696.777 58.792C696.777 60.936 697.503 62.008 698.953 62.008C700.404 62.008 701.129 60.9307 701.129 58.776C701.129 56.632 700.409 55.56 698.969 55.56ZM709.113 54.376C709.881 54.376 710.478 54.6053 710.905 55.064C711.342 55.5227 711.561 56.152 711.561 56.952V63H710.089V57.16C710.089 56.5627 709.977 56.1413 709.753 55.896C709.529 55.6507 709.198 55.528 708.761 55.528C708.313 55.528 707.918 55.656 707.577 55.912C707.236 56.168 706.916 56.536 706.617 57.016V63H705.145V54.568H706.409L706.537 55.816C706.836 55.368 707.204 55.016 707.641 54.76C708.089 54.504 708.58 54.376 709.113 54.376Z" fill="white"/>
</svg>
