<svg width="469" height="812" viewBox="0 0 469 812" fill="none" xmlns="http://www.w3.org/2000/svg">
<path fill-rule="evenodd" clip-rule="evenodd" d="M829.989 1.10451C829.579 3.01919 829.149 4.97031 828.697 6.95657L827.722 6.73487C828.173 4.75266 828.602 2.80569 829.011 0.895264L829.989 1.10451ZM825.849 18.8318C824.884 22.6643 823.849 26.6038 822.743 30.6428L821.779 30.3788C822.882 26.3462 823.916 22.4133 824.879 18.5876L825.849 18.8318ZM819.406 42.3988C818.281 46.2282 817.097 50.1334 815.853 54.1089L814.899 53.8104C816.141 49.8404 817.323 45.9407 818.446 42.1169L819.406 42.3988ZM812.103 65.7602C810.852 69.5421 809.55 73.3789 808.196 77.2662L807.252 76.9373C808.604 73.0549 809.904 69.223 811.154 65.4461L812.103 65.7602ZM804.101 88.7453C802.721 92.5227 801.294 96.3415 799.821 100.198L798.887 99.8411C800.359 95.9892 801.783 92.1749 803.161 88.4022L804.101 88.7453ZM795.367 111.602C793.882 115.325 792.355 119.079 790.784 122.859L789.86 122.476C791.429 118.699 792.955 114.95 794.439 111.232L795.367 111.602ZM786.02 134.097C784.414 137.812 782.768 141.55 781.079 145.307L780.167 144.898C781.853 141.145 783.498 137.411 785.102 133.7L786.02 134.097ZM776.018 156.365C774.311 160.024 772.565 163.699 770.781 167.388L769.881 166.952C771.663 163.268 773.407 159.597 775.111 155.942L776.018 156.365ZM765.369 178.371C763.562 181.973 761.719 185.584 759.837 189.203L758.95 188.742C760.829 185.127 762.671 181.52 764.476 177.923L765.369 178.371ZM754.125 199.998C752.204 203.565 750.247 207.136 748.253 210.71L747.38 210.223C749.371 206.653 751.326 203.086 753.245 199.524L754.125 199.998ZM742.238 221.305C740.208 224.819 738.143 228.333 736.042 231.845L735.183 231.331C737.282 227.824 739.345 224.314 741.372 220.805L742.238 221.305ZM729.702 242.256C727.567 245.702 725.397 249.143 723.193 252.579L722.351 252.039C724.553 248.608 726.72 245.17 728.852 241.729L729.702 242.256ZM716.511 262.808C714.268 266.181 711.991 269.546 709.679 272.901L708.856 272.334C711.164 268.984 713.438 265.623 715.678 262.254L716.511 262.808ZM702.662 282.905C700.305 286.205 697.915 289.493 695.49 292.767L694.687 292.171C697.108 288.902 699.495 285.619 701.848 282.324L702.662 282.905ZM688.139 302.512C685.664 305.733 683.155 308.938 680.613 312.126L679.831 311.502C682.37 308.319 684.875 305.119 687.346 301.903L688.139 302.512ZM672.919 321.591C670.325 324.722 667.697 327.835 665.035 330.926L664.277 330.273C666.935 327.187 669.559 324.08 672.149 320.953L672.919 321.591ZM656.989 340.087C654.277 343.115 651.531 346.12 648.751 349.102L648.02 348.42C650.795 345.443 653.537 342.443 656.244 339.42L656.989 340.087ZM640.338 357.941C637.506 360.855 634.641 363.743 631.741 366.604L631.039 365.893C633.933 363.037 636.794 360.153 639.621 357.244L640.338 357.941ZM622.957 375.087C620.004 377.876 617.018 380.637 613.997 383.367L613.327 382.625C616.342 379.9 619.323 377.144 622.27 374.36L622.957 375.087ZM604.842 391.454C601.768 394.108 598.659 396.73 595.517 399.317L594.881 398.545C598.018 395.963 601.12 393.346 604.188 390.697L604.842 391.454ZM585.999 406.967C582.801 409.474 579.57 411.946 576.304 414.381L575.707 413.579C578.966 411.149 582.191 408.683 585.382 406.18L585.999 406.967ZM566.429 421.554C563.11 423.902 559.757 426.211 556.37 428.48L555.814 427.649C559.194 425.385 562.539 423.081 565.851 420.738L566.429 421.554ZM546.147 435.138C542.711 437.313 539.24 439.447 535.734 441.538L535.222 440.679C538.72 438.593 542.183 436.464 545.613 434.293L546.147 435.138ZM525.181 447.642C521.635 449.63 518.054 451.574 514.44 453.472L513.975 452.587C517.581 450.693 521.154 448.753 524.692 446.77L525.181 447.642ZM264.285 453.713C260.332 453.217 256.358 453.111 252.365 453.372L252.3 452.374C256.354 452.109 260.392 452.217 264.409 452.721L264.285 453.713ZM240.546 455.189C236.75 456.099 232.941 457.318 229.124 458.828L228.756 457.898C232.614 456.372 236.467 455.138 240.313 454.217L240.546 455.189ZM286.846 461.069C283.223 459.115 279.574 457.543 275.903 456.336L276.216 455.386C279.944 456.613 283.648 458.208 287.321 460.189L286.846 461.069ZM503.566 458.992C499.919 460.78 496.239 462.521 492.524 464.215L492.11 463.305C495.815 461.615 499.488 459.878 503.126 458.094L503.566 458.992ZM218.248 463.892C214.818 465.725 211.384 467.779 207.95 470.039L207.4 469.204C210.858 466.928 214.318 464.859 217.777 463.01L218.248 463.892ZM301.674 471.379C300.085 470.015 298.49 468.732 296.889 467.53L297.489 466.73C299.108 467.946 300.721 469.242 302.326 470.621C303.853 471.933 305.359 473.255 306.843 474.589L306.174 475.333C304.696 474.004 303.196 472.686 301.674 471.379ZM481.35 469.12C479.471 469.914 477.584 470.695 475.688 471.463C473.828 472.217 471.983 472.973 470.152 473.73L469.769 472.806C471.602 472.048 473.45 471.292 475.312 470.537C477.204 469.77 479.087 468.991 480.961 468.199L481.35 469.12ZM198.192 477.009C195.096 479.391 192.003 481.931 188.914 484.621L188.257 483.867C191.36 481.165 194.469 478.612 197.582 476.216L198.192 477.009ZM459.341 478.293C455.757 479.837 452.232 481.387 448.764 482.942L448.355 482.03C451.827 480.472 455.357 478.92 458.945 477.375L459.341 478.293ZM323.091 491.98C320.419 489.099 317.658 486.254 314.807 483.449L315.508 482.736C318.37 485.552 321.142 488.408 323.825 491.3L323.091 491.98ZM438.016 487.869C434.497 489.517 431.041 491.172 427.647 492.831L427.208 491.933C430.606 490.271 434.067 488.614 437.592 486.963L438.016 487.869ZM180.053 492.748C177.214 495.483 174.381 498.337 171.556 501.301L170.832 500.611C173.667 497.637 176.51 494.773 179.36 492.028L180.053 492.748ZM417.038 498.142C413.567 499.92 410.165 501.703 406.833 503.492L406.36 502.611C409.698 500.819 413.105 499.033 416.582 497.252L417.038 498.142ZM338.433 510.132C336.04 507.019 333.556 503.936 330.979 500.887L331.743 500.241C334.329 503.302 336.823 506.397 339.226 509.523L338.433 510.132ZM396.465 509.197C393.069 511.113 389.749 513.035 386.505 514.96L385.995 514.1C389.245 512.171 392.571 510.246 395.974 508.326L396.465 509.197ZM163.377 510.211C160.766 513.159 158.163 516.196 155.569 519.317L154.8 518.678C157.4 515.549 160.01 512.504 162.628 509.548L163.377 510.211ZM352.004 529.596C349.91 526.274 347.723 522.975 345.442 519.703L346.262 519.131C348.553 522.416 350.748 525.728 352.85 529.063L352.004 529.596ZM376.393 521.128C373.066 523.214 369.826 525.305 366.669 527.398L366.117 526.565C369.28 524.466 372.528 522.371 375.862 520.281L376.393 521.128ZM148.016 528.672C145.56 531.8 143.113 534.998 140.678 538.261L139.877 537.663C142.317 534.394 144.768 531.189 147.229 528.054L148.016 528.672ZM356.964 534.033C353.721 536.318 350.577 538.607 347.529 540.897L346.928 540.097C349.985 537.801 353.137 535.507 356.388 533.216L356.964 534.033ZM363.732 550.282C361.954 546.775 360.081 543.282 358.112 539.808L358.982 539.315C360.959 542.802 362.839 546.31 364.624 549.83L363.732 550.282ZM338.376 548.008C335.251 550.521 332.24 553.035 329.338 555.548L328.683 554.792C331.594 552.271 334.616 549.749 337.75 547.229L338.376 548.008ZM133.574 548.006C131.271 551.238 128.979 554.524 126.7 557.861L125.874 557.297C128.157 553.955 130.453 550.663 132.76 547.426L133.574 548.006ZM373.476 571.937C372.033 568.286 370.494 564.638 368.857 561L369.769 560.589C371.412 564.242 372.957 567.904 374.406 571.57L373.476 571.937ZM320.688 563.341C317.809 566.041 315.055 568.739 312.421 571.432L311.706 570.733C314.35 568.029 317.115 565.321 320.003 562.611L320.688 563.341ZM119.982 567.888C117.79 571.224 115.61 574.603 113.444 578.02L112.599 577.485C114.768 574.063 116.951 570.679 119.146 567.339L119.982 567.888ZM304.407 580.032C301.755 583.022 299.25 586.005 296.885 588.978L296.103 588.355C298.478 585.368 300.996 582.372 303.659 579.369L304.407 580.032ZM381.167 594.391C380.07 590.625 378.876 586.85 377.582 583.073L378.528 582.748C379.827 586.541 381.026 590.331 382.127 594.111L381.167 594.391ZM107.081 588.23C104.989 591.644 102.91 595.091 100.847 598.567L99.9868 598.056C102.053 594.576 104.134 591.126 106.228 587.708L107.081 588.23ZM289.901 598.302C287.61 601.562 285.485 604.807 283.52 608.033L282.666 607.512C284.642 604.268 286.779 601.005 289.083 597.727L289.901 598.302ZM386.735 617.506C385.999 613.654 385.163 609.778 384.225 605.885L385.197 605.651C386.139 609.559 386.978 613.451 387.717 617.318L386.735 617.506ZM94.7659 608.964C92.7667 612.433 90.7826 615.927 88.8144 619.441L87.9419 618.953C89.912 615.435 91.8981 611.938 93.8995 608.465L94.7659 608.964ZM277.828 618.181C276.007 621.731 274.377 625.253 272.93 628.743L272.006 628.36C273.464 624.845 275.105 621.298 276.938 617.725L277.828 618.181ZM390.058 641.036C389.703 637.141 389.247 633.204 388.685 629.232L389.675 629.092C390.239 633.08 390.698 637.034 391.054 640.945L390.058 641.036ZM82.9798 630.002C81.0609 633.523 79.1586 637.06 77.2736 640.609L76.3904 640.14C78.277 636.588 80.1811 633.048 82.1017 629.524L82.9798 630.002ZM268.946 639.688C267.753 643.492 266.776 647.25 266.002 650.955L265.023 650.751C265.804 647.013 266.789 643.223 267.991 639.389L268.946 639.688ZM71.6737 651.288C69.8258 654.856 67.9962 658.433 66.1855 662.015L65.293 661.564C67.1051 657.979 68.9363 654.399 70.7857 650.828L71.6737 651.288ZM390.978 664.77C391.037 660.874 390.989 656.912 390.831 652.892L391.831 652.853C391.989 656.891 392.037 660.871 391.978 664.785L390.978 664.77ZM264.22 662.455C263.823 666.398 263.656 670.271 263.704 674.064L262.704 674.077C262.656 670.246 262.824 666.335 263.225 662.354L264.22 662.455ZM60.7952 672.806C59.0136 676.415 57.2521 680.026 55.5114 683.634L54.6107 683.2C56.3527 679.589 58.1155 675.975 59.8985 672.364L60.7952 672.806ZM389.233 688.435C389.757 684.599 390.168 680.661 390.462 676.633L391.459 676.706C391.164 680.754 390.75 684.713 390.224 688.57L389.233 688.435ZM264.531 685.639C265.046 689.552 265.792 693.363 266.75 697.061L265.781 697.312C264.814 693.575 264.06 689.724 263.539 685.769L264.531 685.639ZM50.3213 694.516C48.5987 698.169 46.8985 701.816 45.2214 705.453L44.3133 705.034C45.9915 701.394 47.693 697.745 49.4168 694.09L50.3213 694.516ZM384.359 711.625C385.441 707.938 386.401 704.096 387.23 700.115L388.209 700.319C387.374 704.325 386.408 708.193 385.318 711.906L384.359 711.625ZM270.36 708.115C271.807 711.757 273.467 715.261 275.315 718.614L274.44 719.097C272.571 715.707 270.893 712.166 269.431 708.484L270.36 708.115ZM40.2321 716.393C38.5661 720.087 36.9253 723.767 35.3106 727.428L34.3956 727.024C36.0114 723.361 37.6533 719.679 39.3205 715.982L40.2321 716.393ZM375.473 733.584C377.286 730.254 378.961 726.673 380.485 722.867L381.414 723.239C379.876 727.079 378.185 730.695 376.351 734.063L375.473 733.584ZM281.564 728.427C283.871 731.588 286.356 734.571 288.995 737.361L288.268 738.048C285.601 735.227 283.088 732.212 280.757 729.016L281.564 728.427ZM30.4877 738.485C28.8894 742.191 27.3195 745.873 25.779 749.526L24.8576 749.137C26.3991 745.482 27.9701 741.797 29.5695 738.089L30.4877 738.485ZM361.072 752.148C363.91 749.688 366.588 746.8 369.086 743.52L369.882 744.126C367.346 747.454 364.623 750.394 361.727 752.904L361.072 752.148ZM297.507 745.276C300.539 747.749 303.705 749.999 306.978 752.011L306.454 752.863C303.143 750.827 299.941 748.551 296.875 746.051L297.507 745.276ZM317.269 757.398C319.049 758.177 320.85 758.887 322.666 759.528C324.596 760.209 326.499 760.744 328.373 761.137L328.168 762.115C326.249 761.713 324.303 761.167 322.334 760.471C320.494 759.822 318.671 759.102 316.868 758.315L317.269 757.398ZM340.049 761.768C343.956 761.345 347.704 760.271 351.271 758.601L351.695 759.506C348.033 761.221 344.178 762.327 340.157 762.763L340.049 761.768ZM21.1221 760.699C19.5713 764.463 18.0541 768.191 16.5715 771.877L15.6437 771.504C17.1273 767.815 18.6456 764.085 20.1975 760.318L21.1221 760.699ZM12.1379 783.037C10.6455 786.842 9.19322 790.594 7.78249 794.287L6.84832 793.93C8.26013 790.234 9.71346 786.479 11.207 782.672L12.1379 783.037ZM3.51796 805.611C2.82326 807.482 2.14042 809.336 1.46962 811.172L0.530396 810.828C1.20176 808.992 1.88518 807.136 2.58044 805.263L3.51796 805.611Z" fill="black"/>
</svg>
